<?xml version="1.0" encoding="UTF-8" standalone="no"?>
<svg
   id="vector"
   width="200"
   height="200"
   viewBox="0 0 270 270"
   version="1.1"
   sodipodi:docname="ic_t1.svg"
   inkscape:version="1.1.1 (3bf5ae0d25, 2021-09-20)"
   xmlns:inkscape="http://www.inkscape.org/namespaces/inkscape"
   xmlns:sodipodi="http://sodipodi.sourceforge.net/DTD/sodipodi-0.dtd"
   xmlns="http://www.w3.org/2000/svg"
   xmlns:svg="http://www.w3.org/2000/svg">
  <defs
     id="defs10" />
  <sodipodi:namedview
     id="namedview8"
     pagecolor="#ffffff"
     bordercolor="#666666"
     borderopacity="1.0"
     inkscape:pageshadow="2"
     inkscape:pageopacity="0.0"
     inkscape:pagecheckerboard="0"
     showgrid="false"
     inkscape:zoom="4.365"
     inkscape:cx="249.36999"
     inkscape:cy="81.786942"
     inkscape:window-width="2560"
     inkscape:window-height="1376"
     inkscape:window-x="-11"
     inkscape:window-y="19"
     inkscape:window-maximized="1"
     inkscape:current-layer="vector" />
  <rect
     style="fill:#0000ff;fill-rule:evenodd;stroke-width:16.1376"
     id="rect219"
     width="273.40207"
     height="273.71133"
     x="-1.5463885"
     y="-0.92783481" />
  <path
     fill="#ffffff"
     d="m 98.129835,189.78011 c -0.627,-0.344 -1.315,-1.087 -1.529,-1.65 -0.238,-0.627 -0.389,-18.776 -0.389,-46.891 0,-49.966997 -0.1,-47.809997 2.292,-49.378997 1.041,-0.682 2.434005,-0.756 16.449005,-0.875 8.422,-0.071 16.453,-0.012 17.847,0.133 2.738,0.284 4.557,1.251 5.993,3.187 0.812,1.094 0.859,1.721 0.977,12.846997 0.068,6.433 0.012,12.303 -0.125,13.044 -0.468,2.533 -1.302,2.934 -6.103,2.934 -3.802,0 -4.314,-0.086 -4.69,-0.789 -0.257,-0.481 -0.422,-4.618 -0.422,-10.604 v -9.815 h -10.196 -10.196 v 40.376 40.376 h 12.231 12.231 l 0.106,-20.698 0.106,-20.698 5.817,-0.113 5.817,-0.113 0.426,1.119 c 0.281,0.74 0.383,8.104 0.3,21.729 -0.125,20.529 -0.129,20.616 -1.051,22.342 -0.509,0.953 -1.688,2.238 -2.621,2.855 l -1.695,1.122 -20.218,0.094 c -17.533,0.081 -20.370005,0.01 -21.358005,-0.533 z"
     stroke-width="0.407837"
     stroke="#00000000"
     id="path_0" />
  <path
     fill="#ffffff"
     d="m160.13,149.626v-37.929h4.282,4.282v37.929,37.929h-4.282,-4.282z"
     stroke-width="0.407837"
     stroke="#00000000"
     id="path_1" />
  <path
     fill="#ffffff"
     d="m175.369,170.345c0,-9.338 0.145,-16.977 0.322,-16.977 1.27,0 5.386,1.436 6.457,2.253 2.431,1.854 2.669,3.26 2.525,14.901l-0.128,10.375 -1.132,1.926c-1.294,2.202 -3.687,3.803 -6.311,4.222l-1.733,0.277z"
     stroke-width="0.407837"
     stroke="#00000000"
     id="path_2" />
  <path
     fill="#ffffff"
     d="m88.704,202.406c-2.664,-1.325 -4.747,-3.929 -6.231,-7.787 -2.034,-5.292 -2.298,-8.394 -2.298,-27.003v-16.012h3.937,3.937v18.61c0,15.99 0.075,18.857 0.535,20.359 1.227,4.012 -0.95,3.845 49.727,3.827 45.035,-0.016 47.059,-0.075 48.34,-1.407 2.296,-2.387 2.435,-3.831 2.435,-25.167V149.35h5.413,5.413v20.73c0,23.046 -0.078,24.046 -2.113,27.217 -1.556,2.425 -4.632,4.49 -8.003,5.375 -4.348,1.141 -98.763,0.893 -101.092,-0.265z"
     stroke-width="0.496384"
     stroke="#00000000"
     id="path_3" />
  <path
     fill="#ffffff"
     d="m87.199,71.967c-1.972,0.863 -3.514,2.559 -4.612,5.072 -1.506,3.447 -1.701,5.468 -1.701,17.589v10.43h2.914,2.914V92.936c0,-10.415 0.056,-12.283 0.396,-13.261 0.908,-2.613 -0.703,-2.504 36.806,-2.493 33.333,0.011 34.831,0.049 35.779,0.916 1.699,1.555 1.803,2.495 1.803,16.393v12.035h4.006,4.006V93.024c0,-15.011 -0.058,-15.663 -1.564,-17.728 -1.152,-1.579 -3.428,-2.925 -5.923,-3.501 -3.218,-0.743 -73.1,-0.582 -74.824,0.173z"
     stroke-width="0.344661"
     stroke="#00000000"
     id="path_4" />
  <g
     inkscape:groupmode="layer"
     id="layer1"
     inkscape:label="Layer 1"
     style="display:inline" />
</svg>
